<svg xmlns="http://www.w3.org/2000/svg" viewBox="0 0 512 512">
  <rect width="512" height="512" rx="112" fill="#0f0f13"/>
  <!-- Node A -->
  <rect x="60" y="80" width="160" height="100" rx="12" fill="#1e3a5f" stroke="#3b82f6" stroke-width="6"/>
  <rect x="80" y="100" width="60" height="8" rx="4" fill="#3b82f6" opacity="0.7"/>
  <rect x="80" y="118" width="100" height="6" rx="3" fill="#3b82f6" opacity="0.4"/>
  <rect x="80" y="132" width="80" height="6" rx="3" fill="#3b82f6" opacity="0.4"/>
  <!-- Node B -->
  <rect x="292" y="80" width="160" height="100" rx="12" fill="#1a3a2a" stroke="#22c55e" stroke-width="6"/>
  <rect x="312" y="100" width="60" height="8" rx="4" fill="#22c55e" opacity="0.7"/>
  <rect x="312" y="118" width="100" height="6" rx="3" fill="#22c55e" opacity="0.4"/>
  <rect x="312" y="132" width="80" height="6" rx="3" fill="#22c55e" opacity="0.4"/>
  <!-- Node C -->
  <rect x="176" y="320" width="160" height="100" rx="12" fill="#2a1a3a" stroke="#a855f7" stroke-width="6"/>
  <rect x="196" y="340" width="60" height="8" rx="4" fill="#a855f7" opacity="0.7"/>
  <rect x="196" y="358" width="100" height="6" rx="3" fill="#a855f7" opacity="0.4"/>
  <rect x="196" y="372" width="80" height="6" rx="3" fill="#a855f7" opacity="0.4"/>
  <!-- Edges -->
  <line x1="220" y1="180" x2="256" y2="320" stroke="#3b82f6" stroke-width="4" opacity="0.7" marker-end="url(#arr)"/>
  <line x1="292" y1="180" x2="256" y2="320" stroke="#22c55e" stroke-width="4" opacity="0.7" marker-end="url(#arr2)"/>
  <defs>
    <marker id="arr" markerWidth="8" markerHeight="8" refX="4" refY="4" orient="auto">
      <path d="M0,0 L8,4 L0,8 Z" fill="#3b82f6" opacity="0.7"/>
    </marker>
    <marker id="arr2" markerWidth="8" markerHeight="8" refX="4" refY="4" orient="auto">
      <path d="M0,0 L8,4 L0,8 Z" fill="#22c55e" opacity="0.7"/>
    </marker>
  </defs>
</svg>
